/* XPM */
static char *_3f051646c5a41ddf4b92c5cafabcbefUfWUXHAYUvi655lV[] = {
/* columns rows colors chars-per-pixel */
"64 64 180 2 ",
"   c None",
".  c #490900",
"X  c #4A0900",
"o  c #4B0900",
"O  c #4C0900",
"+  c #4D0900",
"@  c #4E0900",
"#  c #4F0900",
"$  c #500900",
"%  c #510A00",
"&  c #520A00",
"*  c #530A00",
"=  c #511107",
"-  c #541208",
";  c #581208",
":  c #571A0F",
">  c #5B190F",
",  c #5E1A0F",
"<  c #5F1B0F",
"1  c #5E1A10",
"2  c #5F1C11",
"3  c #5A2116",
"4  c #5C2217",
"5  c #622216",
"6  c #692519",
"7  c #61291D",
"8  c #63291D",
"9  c #612A1E",
"0  c #64291D",
"q  c #69281C",
"w  c #6B291C",
"e  c #633226",
"r  c #683023",
"t  c #693124",
"y  c #763B2D",
"u  c #7C3E30",
"i  c #6E4234",
"p  c #774536",
"a  c #7A4032",
"s  c #7B4435",
"d  c #7B4637",
"f  c #744838",
"g  c #7D4839",
"h  c #7C483A",
"j  c #804234",
"k  c #834737",
"l  c #845141",
"z  c #845342",
"x  c #876150",
"c  c #8C6553",
"v  c #8A6755",
"b  c #8A6C5B",
"n  c #8C6D5B",
"m  c #8E7260",
"M  c #997D6C",
"N  c #9B8E74",
"B  c #9E8E7B",
"V  c #9E9076",
"C  c #9E9077",
"Z  c #9E9179",
"A  c #9E937E",
"S  c #A0947A",
"D  c #A0947D",
"F  c #A2957C",
"G  c #A2967C",
"H  c #A2977C",
"J  c #A3967D",
"K  c #A3977E",
"L  c #A09480",
"P  c #A39783",
"I  c #A59980",
"U  c #A59881",
"Y  c #A69980",
"T  c #A69981",
"R  c #A49983",
"E  c #A69A82",
"W  c #A79C82",
"Q  c #A39985",
"!  c #A79A84",
"~  c #A79B84",
"^  c #A69B86",
"/  c #A89B83",
"(  c #A89C84",
")  c #A89D84",
"_  c #A99D84",
"`  c #A89C85",
"'  c #A99C85",
"]  c #AA9D85",
"[  c #A99D86",
"{  c #AA9E87",
"}  c #AB9E87",
"|  c #A89D88",
" . c #A89E89",
".. c #A99E89",
"X. c #AA9F88",
"o. c #AB9F88",
"O. c #AB9F89",
"+. c #A99F8A",
"@. c #A99F8C",
"#. c #AA9F8C",
"$. c #ABA089",
"%. c #ABA189",
"&. c #AAA08B",
"*. c #ACA088",
"=. c #ACA089",
"-. c #ACA189",
";. c #ACA18A",
":. c #ADA18A",
">. c #ADA28B",
",. c #ADA38B",
"<. c #AEA28B",
"1. c #AAA08C",
"2. c #ABA08C",
"3. c #ABA18D",
"4. c #ACA18C",
"5. c #ACA18D",
"6. c #AEA28C",
"7. c #AEA38C",
"8. c #AFA38C",
"9. c #AEA38D",
"0. c #ACA28E",
"q. c #ADA38F",
"w. c #AEA38F",
"e. c #AFA48D",
"r. c #AFA58E",
"t. c #AFA48F",
"y. c #B0A48D",
"u. c #B0A48E",
"i. c #B0A58E",
"p. c #B1A58F",
"a. c #B0A68E",
"s. c #AFA492",
"d. c #AFA592",
"f. c #AFA692",
"g. c #AEA693",
"h. c #B0A690",
"j. c #B1A690",
"k. c #B2A690",
"l. c #B2A791",
"z. c #B0A692",
"x. c #B3A793",
"c. c #B3A891",
"v. c #B2A892",
"b. c #B3A892",
"n. c #B3A893",
"m. c #B3A993",
"M. c #B4A993",
"N. c #B2A895",
"B. c #B3A895",
"V. c #B1A997",
"C. c #B2A997",
"Z. c #B3A997",
"A. c #B4AA95",
"S. c #B5AA95",
"D. c #B4AA97",
"F. c #B5AC97",
"G. c #B6AC97",
"H. c #B3AB98",
"J. c #B3AA99",
"K. c #B6AD99",
"L. c #B7AD99",
"P. c #B5AD9B",
"I. c #B7AC9A",
"U. c #B7AD9B",
"Y. c #B7AE9D",
"T. c #B7AF9E",
"R. c #B9AF9A",
"E. c #B9AF9B",
"W. c #B9AF9C",
"Q. c #B8AF9D",
"!. c #B9B09B",
"~. c #B9B19F",
"^. c #BAB09F",
"/. c #BCB29E",
"(. c #B9B0A0",
"). c #BAB1A1",
"_. c #B9B1A2",
"`. c #BBB2A2",
"'. c #BCB4A3",
"]. c #BDB6A7",
/* pixels */
"                                                        7.].D.                                                                  ",
"                                                          U.J.                                                                  ",
"                                                          (.'.                                                                  ",
"                                                          g.(.                                                                  ",
"                                                        7.(.J.Q.v.                                                              ",
"                                                      l.S.(.(.l.O.p.                                                            ",
"                                                    S.l.      U v.M.                                                            ",
"                                                    7.7.p.%.O.7.l.l.                                                            ",
"                                                    p.p.%.(.U.-.U V                                                             ",
"                                                      ~ { U.#.{ U                                                               ",
"                                                      { U %.3.                                                                  ",
"                                                            P   e.                                                              ",
"                                                        F O.s.Z V                                                               ",
"                                                        7.7.  O.O.7.                                                            ",
"                                                        v.7.  e.{ H                                                             ",
"                                                      e.l.!.B.I.l.U                                                             ",
"                                                        7.-.J.B.I.7.                                                            ",
"                                                        O.F !.(.v.                                                              ",
"                                                            (.I.S.                                                              ",
"                                                          S B.#.v.`                                                             ",
"                                                        F ~     7.e.                                                            ",
"                                                        7.7.    -.'                                                             ",
"                                                        U %.l. .{ W                                                             ",
"                                                          { 3.3.                                                                ",
"                                                          l.E.3.s.                                                              ",
"                                                          l.!.R s.                                                              ",
"                                                          -.U.Q 3.~                                                             ",
"                                                          ~ I.7.B.l.F                                                           ",
"                                                        { l.-.    %.U                                                           ",
"                                                        p.{ 7.    U {                                                           ",
"                                                        v.} p.  s.H N                                                           ",
"                                                        e.v.-.{ 3.A                                                             ",
"                                                          I.!.#.F 3.                                                            ",
"                                                              ~ A  .                                                            ",
"                                                              A 3.                                                              ",
"                                                              m B                                                               ",
"                                                              M t b                                                             ",
"                                                              g O O >                                                           ",
"                                                              % X O O - c                                                       ",
"                                                                p O O O 9                                                       ",
"                                                                  r O O O y                                                     ",
"                                                                    < % O 1                                                     ",
"                                                                      % O %                                                     ",
"                                                                      < % % s                                                   ",
"                                                                      w % O a                                                   ",
"                                                    ,                 ; * % s                                                   ",
"                                                    O v             k % O + j                                                   ",
"                                                    % = g         u % % % + l                                                   ",
"                                                    2 e X - q 6 % % % O O 5                                                     ",
"                                                      3 % O O O X X O O O z                                                     ",
"                                                        f 0 O O % O X X d                                                       ",
"                                                            n 0 > 9 4 x                                                         ",
"                                                                                                                                ",
"                                                                                                                                ",
"                                                                                                                                ",
"                                                                                                                                ",
"                                                                                                                                ",
"                                                                                                                                ",
"                                                                                                                                ",
"                                                                                                                                ",
"                                                                                                                                ",
"                                                                                                                                ",
"                                                                                                                                ",
"                                                                                                                                "
};
