/* XPM */
static char *_a78b97ab5f049c3b745a4bb7aa2a3259eSWRWi757U8Hwx6[] = {
/* columns rows colors chars-per-pixel */
"64 64 41 1 ",
"  c None",
". c #490900",
"X c #4A0900",
"o c #4B0900",
"O c #4C0900",
"+ c #4D0900",
"@ c #4E0900",
"# c #4F0900",
"$ c #500900",
"% c #510A00",
"& c #520A00",
"* c #530A00",
"= c #511107",
"- c #541208",
"; c #581208",
": c #571A0F",
"> c #5B190F",
", c #5E1A0F",
"< c #5F1B0F",
"1 c #5E1A10",
"2 c #5F1C11",
"3 c #5A2116",
"4 c #5C2217",
"5 c #622216",
"6 c #692519",
"7 c #61291D",
"8 c #63291D",
"9 c #612A1E",
"0 c #64291D",
"q c #69281C",
"w c #6B291C",
"e c #5D2B2B",
"r c #633226",
"t c #663124",
"y c #683023",
"u c #7A4032",
"i c #7B4435",
"p c #7B4637",
"a c #7D4839",
"s c #727272",
"d c #804234",
/* pixels */
"                                s                               ",
"                               sss                              ",
"                               s s                              ",
"                               s s                              ",
"                               sss                              ",
"                                s                               ",
"                               sss                              ",
"                               s s                              ",
"                               s s                              ",
"                               sss                              ",
"                                s                               ",
"                               sss                              ",
"                               s s                              ",
"                               s s                              ",
"                               sss                              ",
"                                s                               ",
"                               sss                              ",
"                               s s                              ",
"                               s s                              ",
"                               sss                              ",
"                                s                               ",
"                               sss                              ",
"                               s s                              ",
"                               s s                              ",
"                               sss                              ",
"                                s                               ",
"                                t                               ",
"                                tt                              ",
"                                ++:                             ",
"                                X++-                            ",
"                                ee++9                           ",
"                                 y+++                           ",
"                                  <&X1                          ",
"                                   &+&                          ",
"                                   <&+p                         ",
"                                   w+&u                         ",
"                          <        ;*$i                         ",
"                          +        &+&d                         ",
"                          +=a     &+++                          ",
"                          2rX-w6&&&++5                          ",
"                           3++X+XX++X                           ",
"                             0X&++XX                            ",
"                               0<93                             ",
"                                                                ",
"                                                                ",
"                                                                ",
"                                                                ",
"                                                                ",
"                                                                ",
"                                                                ",
"                                                                ",
"                                                                ",
"                                                                ",
"                                                                ",
"                                                                ",
"                                                                ",
"                                                                ",
"                                                                ",
"                                                                ",
"                                                                ",
"                                                                ",
"                                                                ",
"                                                                ",
"                                                                "
};
