/* XPM */
static char *cd237997a77549fbca177ea91c3f8122FF2YNKodB9SD2zfr[] = {
/* columns rows colors chars-per-pixel */
"64 64 256 2 ",
"   c black",
".  c #0000A8",
"X  c #00A800",
"o  c #00A8A8",
"O  c #A80000",
"+  c #A800A8",
"@  c #A85400",
"#  c gray66",
"$  c gray33",
"%  c #5454FC",
"&  c #54FC54",
"*  c #54FCFC",
"=  c #FC5454",
"-  c #FC54FC",
";  c #FCFC54",
":  c gray99",
">  c #ECECEC",
",  c gainsboro",
"<  c #D0D0D0",
"1  c #C0C0C0",
"2  c #B4B4B4",
"3  c gray66",
"4  c #989898",
"5  c gray55",
"6  c #7C7C7C",
"7  c gray44",
"8  c #646464",
"9  c gray33",
"0  c #484848",
"q  c gray22",
"w  c #2C2C2C",
"e  c #202020",
"r  c #FC0000",
"t  c #EC0000",
"y  c #E00000",
"u  c #D40000",
"i  c #C80000",
"p  c #BC0000",
"a  c #B00000",
"s  c #A40000",
"d  c #980000",
"f  c #880000",
"g  c #7C0000",
"h  c #700000",
"j  c #640000",
"k  c #580000",
"l  c #4C0000",
"z  c #400000",
"x  c #FCD8D8",
"c  c #FCB8B8",
"v  c #FC9C9C",
"b  c #FC7C7C",
"n  c #FC5C5C",
"m  c #FC4040",
"M  c #FC2020",
"N  c #FC0000",
"B  c #FCA85C",
"V  c #FC9840",
"C  c #FC8820",
"Z  c #FC7800",
"A  c #E46C00",
"S  c #CC6000",
"D  c #B45400",
"F  c #9C4C00",
"G  c #FCFCD8",
"H  c #FCFCB8",
"J  c #FCFC9C",
"K  c #FCFC7C",
"L  c #FCF85C",
"P  c #FCF440",
"I  c #FCF420",
"U  c #FCF400",
"Y  c #E4D800",
"T  c #CCC400",
"R  c #B4AC00",
"E  c #9C9C00",
"W  c #848400",
"Q  c #706C00",
"!  c #585400",
"~  c #404000",
"^  c #D0FC5C",
"/  c #C4FC40",
"(  c #B4FC20",
")  c #A0FC00",
"_  c #90E400",
"`  c #80CC00",
"'  c #74B400",
"]  c #609C00",
"[  c #D8FCD8",
"{  c #BCFCB8",
"}  c #9CFC9C",
"|  c #80FC7C",
" . c #60FC5C",
".. c #40FC40",
"X. c #20FC20",
"o. c #00FC00",
"O. c #00FC00",
"+. c #00EC00",
"@. c #00E000",
"#. c #00D400",
"$. c #04C800",
"%. c #04BC00",
"&. c #04B000",
"*. c #04A400",
"=. c #049800",
"-. c #048800",
";. c #047C00",
":. c #047000",
">. c #046400",
",. c #045800",
"<. c #044C00",
"1. c #044000",
"2. c #D8FCFC",
"3. c #B8FCFC",
"4. c #9CFCFC",
"5. c #7CFCF8",
"6. c #5CFCFC",
"7. c #40FCFC",
"8. c #20FCFC",
"9. c #00FCFC",
"0. c #00E4E4",
"q. c #00CCCC",
"w. c #00B4B4",
"e. c #009C9C",
"r. c #008484",
"t. c #007070",
"y. c #005858",
"u. c #004040",
"i. c #5CBCFC",
"p. c #40B0FC",
"a. c #20A8FC",
"s. c #009CFC",
"d. c #008CE4",
"f. c #007CCC",
"g. c #006CB4",
"h. c #005C9C",
"j. c #D8D8FC",
"k. c #B8BCFC",
"l. c #9C9CFC",
"z. c #7C80FC",
"x. c #5C60FC",
"c. c #4040FC",
"v. c #2024FC",
"b. c #0004FC",
"n. c #0000FC",
"m. c #0000EC",
"M. c #0000E0",
"N. c #0000D4",
"B. c #0000C8",
"V. c #0000BC",
"C. c #0000B0",
"Z. c #0000A4",
"A. c #000098",
"S. c #000088",
"D. c #00007C",
"F. c #000070",
"G. c #000064",
"H. c #000058",
"J. c #00004C",
"K. c #000040",
"L. c #282828",
"P. c #FCE034",
"I. c #FCD424",
"U. c #FCCC18",
"Y. c #FCC008",
"T. c #FCB400",
"R. c #B420FC",
"E. c #A800FC",
"W. c #9800E4",
"Q. c #8000CC",
"!. c #7400B4",
"~. c #60009C",
"^. c #500084",
"/. c #440070",
"(. c #340058",
"). c #280040",
"_. c #FCD8FC",
"`. c #FCB8FC",
"'. c #FC9CFC",
"]. c #FC7CFC",
"[. c #FC5CFC",
"{. c #FC40FC",
"}. c #FC20FC",
"|. c #FC00FC",
" X c #E000E4",
".X c #C800CC",
"XX c #B400B4",
"oX c #9C009C",
"OX c #840084",
"+X c #6C0070",
"@X c #580058",
"#X c #400040",
"$X c #FCE8DC",
"%X c #FCE0D0",
"&X c #FCD8C4",
"*X c #FCD4BC",
"=X c #FCCCB0",
"-X c #FCC4A4",
";X c #FCBC9C",
":X c #FCB890",
">X c #FCB080",
",X c #FCA470",
"<X c #FC9C60",
"1X c #F0945C",
"2X c #E88C58",
"3X c #DC8854",
"4X c #D08050",
"5X c #C87C4C",
"6X c #BC7848",
"7X c #B47044",
"8X c #A86840",
"9X c #A0643C",
"0X c #9C6038",
"qX c #905C34",
"wX c #885830",
"eX c #80502C",
"rX c #744C28",
"tX c #6C4824",
"yX c #5C4020",
"uX c #543C1C",
"iX c #483818",
"pX c #403018",
"aX c #382C14",
"sX c #28200C",
"dX c #600064",
"fX c #006464",
"gX c #006060",
"hX c #00001C",
"jX c #00002C",
"kX c #302410",
"lX c #480048",
"zX c #500050",
"xX c #000034",
"cX c gray11",
"vX c #4C4C4C",
"bX c gray36",
"nX c gray25",
"mX c gray19",
"MX c #343434",
"NX c #D8F4F4",
"BX c #B8E8E8",
"VX c #9CDCDC",
"CX c #74C8C8",
"ZX c #48C0C0",
"AX c #20B4B4",
"SX c #20B0B0",
"DX c #00A4A4",
"FX c #009898",
"GX c #008C8C",
"HX c #008484",
"JX c #007C7C",
"KX c #007878",
"LX c #007474",
"PX c #007070",
"IX c #006C6C",
"UX c #980088",
/* pixels */
"q q q nXq q q nXq q q q q nXnXnXnXnXnXnXq nXnXq MXq q q q MXq q q nXq nXq q q nXnXnXq nXnXnXq nXq nXq nXnXnXq q q q q q nXq q q ",
"nXMXq q MXq MXq q q MXq nXnXnXnXq nXnXq q nXnXMXq nXq q MXq nXq q nXnXnXnXq nXMXnXnXnXnXnXnXnXnXnXq q nXnXnXq q q nXnXnXnXq q q ",
"nXMXMXq MXq q nXnXq MXq q nXq q q nXnXq nXq MXMXnXnXq q MXq nXnXnXnXnXnXq q nXq nXnXnXnXnXq nXq nXq nXnXnXnXq q nXnXnXq q q q q ",
"nXq MXq MXMXMXq MXMXMXq nXnXnXnXq nXnXnXq nXq q nXnXnXq L.q q nXnXnXnXnXnXnXMXq q nXnXq nXq nXq nXnXnXnXnXnXq MXq nXnXnXq q q MX",
"MXMXMXMXMXnXq q MXMXMXq nXnXnXnXq nXnXnXq q nXq MXq nXq MXq q nXnXnXnXnXnXnXMXnXMXq nXq q q nXnXnXnXnXnXnXnXnXq q nXnXq q q q MX",
"q nXq q q nXq nXq nXq MXnXnXq q nXnXnXnXnXnXnXnXnXMXq nXq nXnXnXnXnXnXnXnXq MXq nXnXnXnXnXnXnXnXnXnXnXnXnXq q q nXnXnXq q q MXMX",
"nXq q q q q nXnXq q q q nXnXq q q q q nXnXnXnXnXq nXnXq nXnXnXnXnXnXnXq q q q q nXq nXnXnXnXq q MXq nXnXnXq q q q nXnXq q q MXMX",
"nXMXq nXnXq q q nXnXq q MXq q q nXq q nXq q q q q q q q q q MXnXnXq L.MXq q MXq MXnXnXnXnXnXq q nXq nXnXnXnXq q q q MXMXq q q nX",
"MXMXMXMXMXMXMXMXMXMXq L.L.MXMXMXMXMXMXMXMXMXMXMXMXMXMXMXMXMXMXq MXMXMXMXq q MXq q q q q MXMXMXMXq MXq MXMXMXMXMXMXMXMXMXMXMXMXMX",
"e e e e e e e e e e e e e e e e e L.e e e e e e e e e e e e e e e e e L.L.L.L.L.e e e e e e e e e e e e e e e e e e e e e e e e ",
"q q q q nXq nXnXq MXq q q q q q nXnXnXq nXq nXnXnXnXnXnXnXq nXnXnXnXnXnXnXnXnXnXnXnXnXnXq q nXq nXnXnXq nXq q MXq q q MXq q MXMX",
"q q q q q MXMXq MXMXq MXq q q q nXnXnXq nXq nXq q nXnXnXnXnXnXnXq nXnXnXnXnXnXnXnXnXnXq q q nXq q nXq q nXnXnXnXq q q q MXq q MX",
"q MXnXq q q MXq nXnXq q q q q q q nXq q q q nXq q q nXnXnXq nXnXq nXnXnXq nXnXq q nXnXMXMXq nXnXq q MXMXq nX$ nXnXnXq MXq MXMXq ",
"nXMXq q q q q q q nXq q q q q MXq q MXq q q nXq nXMXq q q nXnXnXq nXnXq q nXnXnXnXnXq MXnXnXnXnXnXq q q q nX$ nXnXq q MXq MXq q ",
"q nXq q q q q nXnXnXq q nXq nXq q q q q q q q q nXMXq q MXq nXq nXnXnXq nXnXnXnXq q nXq q nXnXnXq q q q q q q nXnXq MXq q q nXq ",
"q nXMXq q q q q q nXq MXnXnXnXq q q q q q q q q q q q nXnXnXq nXnXnXq nXq q nXnXnXMXMXq q q MXq q q q MXq q q nXq MXMXMXMXq q nX",
"q nXq q nXq MXq MXq q q q nXnXMXq q nXnXq q nXnXnXq nXnXnXnXnXnXnXnXq nXnXq MXq q q q q MXq nXq q L.q MXq q nXnXMXMXMXMXMXq q q ",
"MXnXq nXnXq q q MXq nXq nXq q MXq q q q MXMXq nXnXq q q q nXnXq q MXnXq q L.L.q q MXq nXq MXMXq L.MXq MXq nXq q q q MXe MXMXq MX",
"MXq q MXq MXq q q nXnXq nXq q MXq q q q q nXnXq q q q q q nXq q nXq q nXnXnXMXq MXMXq nXq MXMXMXMXq q nXq q q MXq L.MXMXL.q q MX",
"q MXq q q MXq q q MXMXq nXMXMXq MXq q nXnXq q q q q q q MXq q q q nXnXq q MXnXMXMXMXq q nXq MXMXq q q q q MXMXMXMXMXMXq MXMXL.q ",
"MXL.q q q MXMXMXMXnXq MXnXq q q MXMXnXnXnXnXq q nXq q q q q MXq nXnXnXq q q nXq q nXq q nXMXMXMXMXq MXMXMXMXMXMXL.L.MXMXMXL.q MX",
"MXMXMXq MXq nXL.MXMXMXnXnXq q q nXq MXMXq q nXq q q MXMXMXMXMXMXq q q q q MXq q nXL.MXq q q MXMXq MXnXq MXq nXMXL.L.MXMXe q MXL.",
"MXMXMXMXMXMXq MXMXq q q nXnXMXq q q MXq q q q MXq MXq nXq q MXMXMXMXMXMXq MXMXq MXq MXMXq MXq MXMXq MXq MXMXMXMXMXMXMXMXMXMXMXMX",
"MXMXMXL.MXq MXMXq q q q q q MXq q q MXq nXq q MXq q nXq q q MXq MXq MXMXMXMXnXq nXMXMXMXMXMXMXMXMXq q L.MXMXMXL.L.q MXq MXMXMXMX",
"MXMXnXq MXMXMXMXMXq q MXq MXq MXMXq MXMXq q q q q MXq q MXMXMXq MXL.MXq L.MXnXnXq L.e MXq MXq q q MXe e q MXMXq q MXMXL.MXMXMXMX",
"MXMXq MXMXq MXMXMXMXMXMXMXMXq q MXMXq q q MXMXMXMXL.MXMXq q q MXMXL.MXMXMXMXq MXL.MXq MXMXMXMXMXL.MXL.q MXL.MXMXMXMXMXq MXMXMXMX",
"MXMXq MXMXMXMXMXMXMXq q MXq MXq MXMXMXMXMXMXMXL.MXL.MXe L.MXMXMXq q MXMXMXMXq q q MXq q nXq MXq q MXMXMXL.q q L.MXMXMXMXMXMXMXL.",
"MXMXMXL.L.MXL.MXMXq MXMXq q MXMXL.MXMXMXMXMXL.MXq L.L.e q L.L.MXMXMXMXMXL.MXL.MXMXMXMXMXnXMXMXMXMXMXMXq MXq $ MXnXMXMXMXMXMXMXq ",
"MXq MXcXe L.MXMXe e e MXq MXMXMXMXL.MXq q q MXMXMXL.L.MXMXMXe L.MXL.MXMXMXL.MXq MXMXMXq q MXMXMXL.L.MXL.MXq MXMXMXMXMXMXMXMXMXMX",
"MXMXq MXL.nXMXMXMXMXMXMXMXMXMXMXMXMXL.L.MXMXMXL.e MXL.MXL.e L.L.L.L.L.MXL.L.MXMXMXMXe MXMXL.e MXq MXMXMXMXMXMXL.L.L.MXL.MXq L.MX",
"MXq nXq MXq L.q MXMXMXL.MXq MXL.e e MXe e MXMXMXL.MXe MXe e L.L.MXL.L.L.L.MXMXL.L.MXMXq MXq L.MXMXMXMXMXL.MXMXL.MXq L.MXMXMXL.MX",
"MXnXMXMXMXL.MXq MXMXe L.e e e L.L.e MXe MXL.MXMXL.L.L.L.e MXq q e e L.L.L.MXMXMXq MXMXMXMXMXMXMXL.MXq MXMXMXMXMXMXMXL.MXL.L.L.MX",
"MXMXMXMXMXq MXL.MXMXL.MXMXq MXMXL.MXMXq L.L.MXq q L.L.MXMXq MXL.e L.L.MXMXL.e L.L.q q MXL.MXMXL.MXq e L.L.MXe MXMXMXMXMXq MXMXMX",
"MXL.L.L.MXMXL.MXMXMXMXMXL.L.e e L.e MXL.MXL.MXMXMXq L.L.MXMXL.L.L.L.MXMXMXL.MXq q q MXMXq L.L.L.MXe MXMXMXMXL.MXL.MXL.MXL.MXMXMX",
"L.e q MXL.L.e e L.e MXMXL.MXe L.L.MXL.MXL.L.q MXMXL.L.MXcXe L.MXL.e L.L.MXL.L.MXMXMXL.L.L.e L.L.e L.L.e MXL.MXMXL.L.MXe MXMXMXL.",
"L.MXMXMXq MXnXL.MXMXMXMXe e MXMXL.L.L.L.MXL.MXMXMXe L.L.MXq L.cXe MXL.MXL.L.e MXMXL.MXMXMXq MXe MXq MXMXMXMXq L.e MXL.q MXL.L.MX",
"e e L.MXMXMXMXe L.L.MXMXMXMXL.MXq L.L.e L.L.MXL.e MXq q q MXe L.L.MXMXMXMXe e cXL.MXMXMXL.L.MXMXL.L.L.L.L.q MXL.q MXMXMXe e cXL.",
"e L.L.L.MXL.MXL.MXMXL.q nXnXMXL.L.e e L.L.L.e MXMXq L.MXe L.L.MXq L.MXe cXe MXq nXq L.e e e MXMXL.L.MXMXMXMXL.q L.MXL.L.e MXe e ",
"MXL.L.MXMXL.L.L.e L.MXnXMXe cXe e L.L.e L.MXMXMXe MXL.MXMXMXMXq MXMXL.MXL.MXMXMXMXL.e e MXMXMXL.L.MXL.MXL.MXL.L.MXMXL.L.MXq L.MX",
"q MXMXL.L.L.L.L.MXL.MXMXMXMXL.MXe L.L.L.e e e e L.MXL.L.MXL.MXMXe e L.L.q q MXnXMXMXMXq e L.L.L.MXL.MXL.MXMXq q L.L.e e MXL.MXq ",
"MXMXMXL.L.L.MXMXL.L.MXMXnXnXMXL.L.q MXMXL.L.L.MXMXMXMXe L.MXMXMXL.MXL.MXMXq q L.L.e MXL.L.e e L.L.L.L.L.L.MXL.L.MXe e L.MXL.L.MX",
"e L.MXMXMXMXMXMXMXMXL.L.q vXnXMXMXL.MXMXL.L.e L.L.L.L.MXe MXMXL.L.q MXMXL.L.L.e e L.MXL.e e L.q e e L.MXMXL.MXMXe L.q MXL.L.e e ",
"cXe L.e L.MXMXMXe MXL.e MXMXL.L.e L.MXL.L.MXMXL.MXL.L.L.MXMXMXL.MXL.L.L.MXL.L.L.q MXL.MXMXL.L.e L.q nXMXL.L.MXL.e L.MXL.e L.cXe ",
"MXe cXe MXL.MXL.L.MXq MXL.MXMXL.MXL.L.L.L.L.MXMXL.L.e L.MXL.MXMXMXL.MXMXe MXMXMXq L.MXL.L.L.L.MXMXL.e L.L.e L.L.L.L.MXL.e MXMXq ",
"L.e e L.L.L.L.L.e L.MXq e e MXe L.L.L.e e e L.e L.e e MXMXMXMXMXL.MXe e L.L.e L.cXL.L.L.e e L.L.L.MXMXMXL.L.L.MXL.L.MXe e L.L.e ",
"L.q q L.L.L.e e MXL.MXMXL.MXe e L.MXMXMXMXMXMXMXe L.e L.L.L.L.L.MXL.L.q q L.nXL.MXnXMXL.MXMXL.e e MXL.L.L.L.L.MXMXMXL.MXcXL.MXL.",
"L.e L.e e e L.L.MXMXL.L.L.q MXMXL.L.L.L.L.L.L.e L.MXL.L.L.L.L.L.L.L.L.L.e L.e L.MXL.MXMXL.MXMXe L.L.MXMXMXe L.L.e MXL.L.MXq MXMX",
"L.MXL.L.L.L.L.L.L.MXMXMXL.L.e MXL.L.e e e L.MXMXL.L.MXMXMXL.MXMXMXMXL.L.L.L.MXL.L.L.L.MXMXL.L.L.e e L.MXL.e L.L.MXL.MXL.MXe e L.",
"L.L.L.e e L.MXL.L.L.MXL.e MXe L.e L.e e e e L.L.L.L.e e e MXMXMXe L.L.L.MXL.MXL.MXMXMXL.MXMXe L.L.MXMXL.e L.MXe e e MXMXL.L.L.MX",
"MXMXL.L.MXL.L.L.L.L.e L.MXL.e L.L.L.MXMXe q L.L.L.MXL.L.L.e e e e L.L.MXL.e MXL.L.L.L.L.MXMXL.L.L.L.L.L.MXMXL.MXMXMXMXe e L.L.MX",
"e L.L.L.MXq MXL.L.L.MXMXL.L.e e L.e e L.L.L.L.L.MXL.e L.L.L.L.L.q L.L.e e L.MXe e L.e e L.L.MXe cXe e L.MXMXL.L.L.L.L.MXq MXMXe ",
"L.L.MXL.L.MXL.L.L.L.MXMXL.e e e L.MXL.L.L.L.e L.e L.MXe L.MXq q MXMXMXMXe MXL.L.L.e MXq MXL.e e MXMXMXL.L.MXL.MXL.L.L.L.L.L.L.L.",
"L.L.L.L.L.L.L.L.L.L.MXL.MXMXe L.e e cXe L.MXL.L.e L.e e L.L.L.e L.L.L.MXL.e L.L.L.MXnXMXMXL.L.q nXL.e L.L.L.L.L.L.L.MXe L.L.MXL.",
"e e L.L.MXMXL.L.L.MXL.L.L.L.e MXe L.MXMXMXL.e L.L.L.L.L.L.L.e L.e e MXe L.L.MXL.MXMXL.L.e L.L.q L.e cXL.L.MXL.e L.L.L.MXL.e L.e ",
"L.L.L.MXL.L.e L.L.L.MXL.L.MXMXL.MXL.L.L.L.e L.L.L.e L.L.L.L.L.L.MXL.e MXe L.e e e L.MXL.L.e L.e cXL.e L.MXL.e L.MXL.e L.MXL.L.MX",
"L.MXL.e L.e L.L.MXL.L.MXL.L.MXe MXq e L.L.MXL.e e cXe MXe L.L.MXMXL.MXe cXL.e L.MXMXL.e MXL.MXL.L.e e L.L.e L.L.L.L.MXMXL.MXL.q ",
"L.e MXL.L.e L.L.MXL.L.L.L.L.L.L.L.MXL.L.L.MXe e cXL.MXe e L.L.L.L.MXL.L.e MXL.L.L.cXMXMXL.MXL.L.e e MXe cXMXL.MXL.MXMXMXL.L.MXMX",
"nXq q q nXnXnXnXnXMXnXnXnXnXnXnXq nXnXnXMXMXMXq q q q q nXnXnXnXvXvXnXq vXq q vXMXnXnXnXnXnXMXq MXnXnXnX$ nXq nXnXq nXnXnXnXnXnX",
"L.e e L.L.L.L.L.L.L.MXL.L.L.L.L.L.L.L.L.L.e L.L.L.L.L.L.L.L.L.L.L.L.L.L.L.L.L.L.L.MXL.L.L.L.L.L.L.L.L.L.MXL.L.L.L.L.L.L.L.L.L.L.",
"MXMXMXq q q MXMXMXMXMXMXq q MXq q q q MXq MXMXMXMXMXq q q MXMXMXMXq q q MXq MXq q q nXq q q q q q MXq q q q q q q q q q q q q q ",
"MXMXMXMXMXMXMXMXMXMXMXMXMXMXq MXMXMXMXMXMXMXMXMXMXMXq MXMXMXMXMXq MXq MXMXq MXMXMXMXq MXMXMXMXMXMXMXMXMXMXMXMXMXMXq MXq MXMXMXMX",
"L.L.L.L.L.L.L.L.L.L.L.L.L.L.MXL.L.L.L.L.L.L.L.L.L.L.L.L.e e L.L.L.L.L.L.L.L.L.L.L.L.L.L.L.L.L.L.L.L.L.L.L.L.L.L.L.L.L.L.L.L.L.L.",
"L.L.L.L.L.L.L.L.e e e L.L.L.L.L.L.L.L.L.L.e e L.L.L.L.e e L.L.L.L.L.L.L.L.L.L.L.L.L.L.L.L.L.L.L.L.L.e L.L.L.L.L.L.L.L.L.L.L.L.L.",
"e e e e e e L.e e e e e e e e e e e e e e e e e e e e e e e e e e e e e e e L.L.e e e e e e e e e e e e e e e e e e e e e e e e "
};
