/* XPM */
static char *_d95af4446044d7195a6b3a3a7648e9aIsBqAJcPdiqKRtH7[] = {
/* columns rows colors chars-per-pixel */
"64 64 46 1 ",
"  c #050405",
". c gray2",
"X c #0B0A0B",
"o c #0B0B0B",
"O c #111010",
"+ c #131313",
"@ c #141212",
"# c #141312",
"$ c #141213",
"% c gray8",
"& c #151414",
"* c gray9",
"= c #171718",
"- c #181718",
"; c #181818",
": c #1A1818",
"> c #1A1919",
", c #1D1B1C",
"< c #1D1C1C",
"1 c #1D1C1D",
"2 c #1E1C1D",
"3 c #222222",
"4 c #232222",
"5 c #232322",
"6 c #232323",
"7 c #272627",
"8 c #272727",
"9 c #282727",
"0 c #2F2F30",
"q c #302F30",
"w c gray19",
"e c #343434",
"r c #353535",
"t c #39393A",
"y c gray24",
"u c #3E3E3D",
"i c #414141",
"p c #424141",
"a c gray26",
"s c #4A4A4B",
"d c #4B4A4B",
"f c #4B4B4C",
"g c #575657",
"h c #696869",
"j c #838283",
"k c #939393",
/* pixels */
";4;&4;4;;4;&;4;&;;&&%;;;;;&;:&;;:8-4-46;;&&6-6;;;;&&*;;;&;:-#&;&",
"4w04wrw4rr8;9q5;;84&60w999;;q--:4qqeww4r5;9rwq4-;9;9ww6859w6;5;;",
"ww8;884w884&499:88;&;6666;&w5&55qq9884w9-;;8988699&;668-:-5:&;5;",
"w89684w8844;499;964;66;;6;;45-5;q98940995-589486w4;;4444-55;;;5;",
"r88484w88w4=686;084;66;;9;-46;55w8950;996;488w8;84>--944-5;;;:8-",
"w8844w88884;66;&r86-;6489-;66;5;444w8;886-48888=w6->-944;59;::5-",
"w88;w8888884;;&&q86;866645;45;5;rww986848688888686;586485655#95-",
"r8888888889;5wr;846=466666;5;555r8;884808488888=84;6444;555-559-",
"-884888888-;rw9&866;666;;;*68*66w8;9848888888884q5-55559-5;9;65-",
"r884888884rrq#&o*OOOOOOoOO;OOoOo&&o&&&###O&X;OOX-XXOOO669--9;66;",
"w88-48886r048&222222<2222222222222<<222222,2222222222O555-95-46-",
"r844808808868O2jf222<<js22<<2kf222<<kf2<222js22222jp2O555-95;48;",
"w88ww99888958;2i 2222*f 2222;f 2222*f 2222*i 22222p 2O65-955-55;",
"4888998889998O<<22222222222222222222222222<2222222222O5-9556;5;:",
";46646;;-455;O<222222222222222222222222222,2222222222O---565:6:;",
";;;;;;;8rwwr9;;2222222222                  2222222222-6:---:;;:#",
"&&&&&&5rww88q#22222222222 222222222,222222 222222----#95--#&&&&&",
";;;;;;quw8888#;;;<2222222 2   22    ,2   2 22;;:--:--#96;----;5;",
";;;;5-quq8888#--;;;;::;:2 2   f2    f2   ; :*;:::::;-#96-&;----6",
"9;6665wrw8894O-ht--::::;; ;   f;    f:   ; ;;;::::hw-&9-:;:89556",
"46-9559rq944r--w -,;:;;;: :   f;    f-   ; ;;;::::w ;&59;&-54664",
"64-966-504rq9&:::--;;;:;: :   p;    a:   : :;,::&:;,-&95;&;64446",
"4-9565694r889#:;::::;:;:: :   p-    p;   : :;;;;;;:;-#95;;;56466",
"-956695qu8899#;;:::;::-;: ;   p-    a;   ; ;;;;;;;;:;&95;;;-;846",
"944464wue8849#-;:-;;-::;; ;   i>    t:   : ;;;:;-:::;O94;&;99446",
"44-446eew88w5#;gw:;;:-::; ;   t-    t:   : -;;::;:::;&6-;&&48444",
"648466wu0888w#;q :::--:-: :   u:    t;   : :::::;;-:;Ow95:;44464",
"664468wew8889O:;;;:;-,;:: ;   r-    t;   : :;:::;;g9;;96;;:844;6",
"004606wrw8888O;9999999 :: ;   t;    t;   : ::;:;:;9 ;&8;;488;8r0",
"rr80rwuew46&;O;9::;&;; ;: ;   t:    t:   : :;:;:;:::;o46qrr04wr8",
"4w48w8eweww40;;9:;::;; -: :   t;    t;   - :,-:;;;::;;rrwwr8484-",
"0w&88*88888w8&;9::::;; ,: :-;;;;;;;;;;;;:- ;-;;;;;;:&O888894-49;",
"q8;49;8888889#;9-;;q;; ::                  :;::;:::;:Ow99896;595",
"r9;69;-408899&;2 : f : :::-:;::::::;::::;;;;-,::;:-;;;9984;&;588",
"08699;6608995#-2 : w ; :::::;;::::;;:;:;:;:-;:;---;,;&888;9r488&",
"w8664;6w8899q#-2:; ; ; :;--;,;;:::;;;;;;::::;;::;-f9-O898=8r499-",
"r8&wq4w889889#-2;-   ; :;;;:;;;;:;;;;;::;:;:::::-:9 -&9980r06884",
"r8w9868849889#-2,-: ;; :;;:;::;;:;;&::;;:::;;:::;:::-#65w8888844",
"w8988688998,9#;2-;;-;; ;:::::;;;;;:::::;;::;;-:-::;:-#qw8888860-",
"r8888486895w9&;2::;:;; ;-::::::;;::::;;,::;;;;--;:::-#9988884w9;",
"w888848099q88#;2::;,-; -:::;;;-;,;:-::;::;;::->:::;:-#8888840884",
"w868888899988&;-       ;::-;;;::--;::;:;:;:;->>:;;:;;Oq88884088;",
"6808888899998X;;:;-;::;:::;;;;:::;;;;;::::;;->-;:;;;;orw88408844",
"rrrerrer;6;;-X;;::;;::::::--::::;:-;;;;:::-:-,-;;:i2-O-qruurueur",
"ww080ww8;5ru9X;p2::-:;;;-;;;;;;::::::::::;:&;;::::2 ;-5rwww00www",
"888w8884-5qqr&;2 ::-::;;-:;;:::;;::>-:::;;::;;;:::;;-#9rw8888888",
"88888884;5wq9-::;-;-::;;::::;:;;;,->--;:;::::;-;;:;;;#9uw488884w",
"84888886;6ww9;;::;-,;;;:::-:::;;:;->--;;:;::;,-;:-;,;&9r;;4888w8",
"8w48886;;59q9o&;;:::::;::,-;:::;::::;:;;::;:;:;;-:;:--94r0q48888",
"88w*46ww;5rw9o;:;;::&::;;;;;::::;::::;;;:::;:;;:::---&8u08804888",
"8886ew86;5ww9X::;;::;;,::::;:;;;;;::;:-;::;;::::::,--&9qq8804886",
"8884w886:5ww9O;;;-::;;-;:-;:;;;;;;::;:::::;;::;-::---#9qq888w48w",
"886w8884-5wwwO;;:::::->-:::;,-;;;;:;::::&;;;:;:-::;;:&8y84888w88",
"86w88886;5wwwO;t2;::->-;:                  ;:;;,&:t2;&9ur0888888",
"8w688886:5www&;2 :-;::,-; ;;:::-;;;:;:,:;; :;;::;;2 ;#9r08888888",
"88888686:5www&;;:;::---;; ;;::::,;::-;-;:- ,;::;;;::;&9rw8884888",
"44666844-5q8q&;;::;;-;;:- ::->-,;;::-:-;-- ::;;::::;;;8rw4668666",
";;;=;;;;;6qrw&;;;:,-:-;;- -:>>-;--::::;;-, :;;;;::::;O4w8&;;;;;;",
"&%&$&&&&&5559&;;:;:::::;- :::::;::;:;;;;;: ;:::;::;;;&-4O%&&&&&&",
";4&&&;&;-5wqq;:;;;::::-;- ::::::;;::::;;;: ;:::;;-;;;*0q&%%;&&&&",
"04;&;5&-48999#-;::;-::;:; ;;;;:;--;:;::::; ;;:;:;;;:;&99;&;;&;&;",
"r8;;;8&688999#;w;;:--w:;; :-::-::-,;:::::: ;;q:;;;w:-#99;&;w#*;;",
"w84;96;888995O;; ;;-:: :: :;::;;::;:;;:::: :,- :;;: -#994;69*4;;",
"r84;6q;88899q--;;;;:::-:; ::;;;;::;-,;;&-: --;;:;;;:;&995;69*8;;"
};
