/* XPM */
static char *result[] = {
/* columns rows colors chars-per-pixel */
"64 64 98 2 ",
"   c #504B3E",
".  c #514B3F",
"X  c #524C40",
"o  c #534E41",
"O  c #544F42",
"+  c #545042",
"@  c #555144",
"#  c #575245",
"$  c #585446",
"%  c #5A5547",
"&  c #5B5649",
"*  c #5C5649",
"=  c #5D574A",
"-  c #5F5A4C",
";  c #5F5B4D",
":  c #605B4D",
">  c #635E4F",
",  c #635F52",
"<  c #645F53",
"1  c #646052",
"2  c #646053",
"3  c #656253",
"4  c #666253",
"5  c #686455",
"6  c #6A6455",
"7  c #6A6555",
"8  c #686556",
"9  c #6D6759",
"0  c #6F6B5D",
"q  c #6F6C5D",
"w  c #706B5C",
"e  c #746E5E",
"r  c #777161",
"t  c #767263",
"y  c #797464",
"u  c #7A7564",
"i  c #7E7868",
"p  c #7E7A6C",
"a  c #827C6C",
"s  c #857F6F",
"d  c #878375",
"f  c #898472",
"g  c #8A8474",
"h  c #8C8575",
"j  c #8D8876",
"k  c #8E8877",
"l  c #8F8978",
"z  c #8F8A78",
"x  c #8F8C79",
"c  c #8F8D7D",
"v  c #918C7A",
"b  c #958E7D",
"n  c #97917F",
"m  c #979280",
"M  c #9B9684",
"N  c #959689",
"B  c #97968A",
"V  c #97998C",
"C  c #9F9A88",
"Z  c #9A9A8D",
"A  c #9B9B8D",
"S  c #9E9D8E",
"D  c #9F9D8F",
"F  c #A39D8A",
"G  c #A19E91",
"H  c #A39F92",
"J  c #A7A18E",
"K  c #A5A292",
"L  c #A6A292",
"P  c #A7A393",
"I  c #ACA392",
"U  c #AAA595",
"Y  c #ACA695",
"T  c #ADA796",
"R  c #AEA797",
"E  c #B0A796",
"W  c #B1A999",
"Q  c #B1AA99",
"!  c #B3AC9A",
"~  c #BDB8AA",
"^  c #C2BEB0",
"/  c #C7C1B4",
"(  c #C9C1B0",
")  c #C8C2B5",
"_  c #C8C4B5",
"`  c #D1C7B5",
"'  c #D7CCBB",
"]  c #D8CEBE",
"[  c #DBD1C2",
"{  c #D2D1CC",
"}  c #D2D3CE",
"|  c #E7DBCC",
" . c #ECE0D1",
".. c #EDE1D2",
"X. c #EEE3D4",
"o. c #E1E0DE",
"O. c #E1E1DF",
"+. c None",
/* pixels */
"+.+.+.+., ] +.+.+.+.+.+.+.+.+.. X.+.+.+.+.+.+.+.+.+.l _ +.+.+.+.+.+.+.+., ] +.+.+.+.+.+.+.+.+.. X.+.+.+.+.+.+.+.+.+.l _ +.+.+.+.",
"+.+.+.+.1 ] +.+.+.+.+.+.+.+.+.. X.+.+.+.+.+.+.+.+.+.z _ +.+.+.+.+.+.+.+.1 ] +.+.+.+.+.+.+.+.+.. X.+.+.+.+.+.+.+.+.+.z _ +.+.+.+.",
"+.+.+.+., ] +.+.+.+.+.+.+.+.+.. X.+.+.+.+.+.+.+.+.+.l _ +.+.+.+.+.+.+.+., ] +.+.+.+.+.+.+.+.+.. X.+.+.+.+.+.+.+.+.+.l _ +.+.+.+.",
"+.+.+.+.1 ] +.+.+.+.+.+.+.+.+.. X.+.+.+.+.+.+.+.+.+.z _ +.+.+.+.+.+.+.+.1 ] +.+.+.+.+.+.+.+.+.. X.+.+.+.+.+.+.+.+.+.z _ +.+.+.+.",
"+.+.+.+., ] +.+.+.+.+.+.+.+.+.. X.+.+.+.+.+.+.+.+.+.l _ +.+.+.+.+.+.+.+., ] +.+.+.+.+.+.+.+.+.. X.+.+.+.+.+.+.+.+.+.l _ +.+.+.+.",
"+.+.+.+.1 ] +.+.+.+.+.+.+.+.+.. X.+.+.+.+.+.+.+.+.+.z _ +.+.+.+.+.+.+.+.1 ] +.+.+.+.+.+.+.+.+.. X.+.+.+.+.+.+.+.+.+.z _ +.+.+.+.",
"+.+.+.+., ] +.+.+.+.+.+.+.+.+.. X.+.+.+.+.+.+.+.+.+.l _ +.+.+.+.+.+.+.+., ] +.+.+.+.+.+.+.+.+.. X.+.+.+.+.+.+.+.+.+.l _ +.+.+.+.",
"+.+.+.+.1 ] +.+.+.+.+.+.+.+.+.. X.+.+.+.+.+.+.+.+.+.z _ +.+.+.+.+.+.+.+.1 ] +.+.+.+.+.+.+.+.+.. X.+.+.+.+.+.+.+.+.+.z _ +.+.+.+.",
"+.+.+.+., ] +.+.+.+.+.+.+.+.+.. X.+.+.+.+.+.+.+.+.+.l _ +.+.+.+.+.+.+.+., ] +.+.+.+.+.+.+.+.+.. X.+.+.+.+.+.+.+.+.+.l _ +.+.+.+.",
"+.+.+.+.1 ' +.+.+.+.+.+.+.+.+.   .+.+.+.+.+.+.+.+.+.l / +.+.+.+.+.+.+.+.1 ' +.+.+.+.+.+.+.+.+.X ..+.+.+.+.+.+.+.+.+.z ) +.+.+.+.",
"c d p t 0 8 , ; & $ @ O o X       X + # % = - > 4 6 9 w e r y i a s f j x b n M C F J I E ! Q W R T Y U P L K H G D S A Z V B N ",
"+.+.+.+.3 ( } +.+.+.+.+.+.+.+.  [ +.+.+.+.+.+.+.+.+.h ~ +.+.+.+.+.+.+.+.7 ` +.+.+.+.+.+.+.+.+.* | +.+.+.+.+.+.+.+.+.v ^ +.+.+.+.",
"+.+.+.+., ] +.+.+.+.+.+.+.+.+.. X.+.+.+.+.+.+.+.+.+.l _ +.+.+.+.+.+.+.+., ] +.+.+.+.+.+.+.+.+.. X.+.+.+.+.+.+.+.+.+.l _ +.+.+.+.",
"+.+.+.+.1 ] +.+.+.+.+.+.+.+.+.. X.+.+.+.+.+.+.+.+.+.z _ +.+.+.+.+.+.+.+.1 ] +.+.+.+.+.+.+.+.+.. X.+.+.+.+.+.+.+.+.+.z _ +.+.+.+.",
"+.+.+.+., ] +.+.+.+.+.+.+.+.+.. X.+.+.+.+.+.+.+.+.+.l _ +.+.+.+.+.+.+.+., ] +.+.+.+.+.+.+.+.+.. X.+.+.+.+.+.+.+.+.+.l _ +.+.+.+.",
"+.+.+.+.1 ] +.+.+.+.+.+.+.+.+.. X.+.+.+.+.+.+.+.+.+.z _ +.+.+.+.+.+.+.+.1 ] +.+.+.+.+.+.+.+.+.. X.+.+.+.+.+.+.+.+.+.z _ +.+.+.+.",
"+.+.+.+., ] +.+.+.+.+.+.+.+.+.. X.+.+.+.+.+.+.+.+.+.l _ +.+.+.+.+.+.+.+., ] +.+.+.+.+.+.+.+.+.. X.+.+.+.+.+.+.+.+.+.l _ +.+.+.+.",
"+.+.+.+.1 ] +.+.+.+.+.+.+.+.+.. X.+.+.+.+.+.+.+.+.+.z _ +.+.+.+.+.+.+.+.1 ] +.+.+.+.+.+.+.+.+.. X.+.+.+.+.+.+.+.+.+.z _ +.+.+.+.",
"+.+.+.+., ] +.+.+.+.+.+.+.+.+.. X.+.+.+.+.+.+.+.+.+.l _ +.+.+.+.+.+.+.+., ] +.+.+.+.+.+.+.+.+.. X.+.+.+.+.+.+.+.+.+.l _ +.+.+.+.",
"+.+.+.+.1 ] +.+.+.+.+.+.+.+.+.. X.+.+.+.+.+.+.+.+.+.z _ +.+.+.+.+.+.+.+.1 ] +.+.+.+.+.+.+.+.+.. X.+.+.+.+.+.+.+.+.+.z _ +.+.+.+.",
"+.+.+.+., ] +.+.+.+.+.+.+.+.+.. X.+.+.+.+.+.+.+.+.+.l _ +.+.+.+.+.+.+.+., ] +.+.+.+.+.+.+.+.+.. X.+.+.+.+.+.+.+.+.+.l _ +.+.+.+.",
"+.+.+.+.1 ] +.+.+.+.+.+.+.+.+.. X.+.+.+.+.+.+.+.+.+.z _ +.+.+.+.+.+.+.+.1 ] +.+.+.+.+.+.+.+.+.. X.+.+.+.+.+.+.+.+.+.z _ +.+.+.+.",
"+.+.+.+., ] +.+.+.+.+.+.+.+.+.. X.+.+.+.+.+.+.+.+.+.l _ +.+.+.+.+.+.+.+., ] +.+.+.+.+.+.+.+.+.. X.+.+.+.+.+.+.+.+.+.l _ +.+.+.+.",
"+.+.+.+.1 ] +.+.+.+.+.+.+.+.+.. X.+.+.+.+.+.+.+.+.+.z _ +.+.+.+.+.+.+.+.1 ] +.+.+.+.+.+.+.+.+.. X.+.+.+.+.+.+.+.+.+.z _ +.+.+.+.",
"+.+.+.+., ] +.+.+.+.+.+.+.+.+.. X.+.+.+.+.+.+.+.+.+.l _ +.+.+.+.+.+.+.+., ] +.+.+.+.+.+.+.+.+.. X.+.+.+.+.+.+.+.+.+.l _ +.+.+.+.",
"+.+.+.+.1 ] +.+.+.+.+.+.+.+.+.. X.+.+.+.+.+.+.+.+.+.z _ +.+.+.+.+.+.+.+.1 ] +.+.+.+.+.+.+.+.+.. X.+.+.+.+.+.+.+.+.+.z _ +.+.+.+.",
"+.+.+.+., ] +.+.+.+.+.+.+.+.+.. X.+.+.+.+.+.+.+.+.+.l _ +.+.+.+.+.+.+.+., ] +.+.+.+.+.+.+.+.+.. X.+.+.+.+.+.+.+.+.+.l _ +.+.+.+.",
"+.+.+.+.1 ] +.+.+.+.+.+.+.+.+.. X.+.+.+.+.+.+.+.+.+.z _ +.+.+.+.+.+.+.+.1 ] +.+.+.+.+.+.+.+.+.. X.+.+.+.+.+.+.+.+.+.z _ +.+.+.+.",
"+.+.+.+., ] +.+.+.+.+.+.+.+.+.. X.+.+.+.+.+.+.+.+.+.l _ +.+.+.+.+.+.+.+., ] +.+.+.+.+.+.+.+.+.. X.+.+.+.+.+.+.+.+.+.l _ +.+.+.+.",
"+.+.+.+., ] o.+.+.+.+.+.+.+.+.. X.+.+.+.+.+.+.+.+.+.l _ +.+.+.+.+.+.+.+., ] o.+.+.+.+.+.+.+.+.. X.+.+.+.+.+.+.+.+.+.l _ +.+.+.+.",
"+.+.+.+.1 ] +.+.+.+.+.+.+.+.+.. X.+.+.+.+.+.+.+.+.+.z _ +.+.+.+.+.+.+.+.1 ] +.+.+.+.+.+.+.+.+.. X.+.+.+.+.+.+.+.+.+.z _ +.+.+.+.",
"+.+.+.+., ] +.+.+.+.+.+.+.+.+.. X.+.+.+.+.+.+.+.+.+.l _ +.+.+.+.+.+.+.+., ] +.+.+.+.+.+.+.+.+.. X.+.+.+.+.+.+.+.+.+.l _ +.+.+.+.",
"+.+.+.+.1 ] +.+.+.+.+.+.+.+.+.. X.+.+.+.+.+.+.+.+.+.z _ +.+.+.+.+.+.+.+.1 ] +.+.+.+.+.+.+.+.+.. X.+.+.+.+.+.+.+.+.+.z _ +.+.+.+.",
"+.+.+.+., ] +.+.+.+.+.+.+.+.+.. X.+.+.+.+.+.+.+.+.+.l _ +.+.+.+.+.+.+.+., ] +.+.+.+.+.+.+.+.+.. X.+.+.+.+.+.+.+.+.+.l _ +.+.+.+.",
"+.+.+.+.1 ] O.+.+.+.+.+.+.+.+.. X.+.+.+.+.+.+.+.+.+.z _ +.+.+.+.+.+.+.+.1 ] O.+.+.+.+.+.+.+.+.. X.+.+.+.+.+.+.+.+.+.z _ +.+.+.+.",
"+.+.+.+., ] o.+.+.+.+.+.+.+.+.. X.+.+.+.+.+.+.+.+.+.l _ +.+.+.+.+.+.+.+., ] o.+.+.+.+.+.+.+.+.. X.+.+.+.+.+.+.+.+.+.l _ +.+.+.+.",
"+.+.+.+.1 ] O.+.+.+.+.+.+.+.+.. X.+.+.+.+.+.+.+.+.+.z _ +.+.+.+.+.+.+.+.1 ] O.+.+.+.+.+.+.+.+.. X.+.+.+.+.+.+.+.+.+.z _ +.+.+.+.",
"+.+.+.+.1 ] +.+.+.+.+.+.+.+.+.. X.+.+.+.+.+.+.+.+.+.z _ +.+.+.+.+.+.+.+.1 ] +.+.+.+.+.+.+.+.+.. X.+.+.+.+.+.+.+.+.+.z _ +.+.+.+.",
"+.+.+.+., ] +.+.+.+.+.+.+.+.+.. X.+.+.+.+.+.+.+.+.+.l _ +.+.+.+.+.+.+.+., ] +.+.+.+.+.+.+.+.+.. X.+.+.+.+.+.+.+.+.+.l _ +.+.+.+.",
"+.+.+.+.1 ] +.+.+.+.+.+.+.+.+.. X.+.+.+.+.+.+.+.+.+.z _ +.+.+.+.+.+.+.+.1 ] +.+.+.+.+.+.+.+.+.. X.+.+.+.+.+.+.+.+.+.z _ +.+.+.+.",
"+.+.+.+., ] +.+.+.+.+.+.+.+.+.. X.+.+.+.+.+.+.+.+.+.l _ +.+.+.+.+.+.+.+., ] +.+.+.+.+.+.+.+.+.. X.+.+.+.+.+.+.+.+.+.l _ +.+.+.+.",
"+.+.+.+.1 ] +.+.+.+.+.+.+.+.+.. X.+.+.+.+.+.+.+.+.+.z _ +.+.+.+.+.+.+.+.1 ] +.+.+.+.+.+.+.+.+.. X.+.+.+.+.+.+.+.+.+.z _ +.+.+.+.",
"+.+.+.+., ] +.+.+.+.+.+.+.+.+.. X.+.+.+.+.+.+.+.+.+.l _ +.+.+.+.+.+.+.+., ] +.+.+.+.+.+.+.+.+.. X.+.+.+.+.+.+.+.+.+.l _ +.+.+.+.",
"+.+.+.+.1 ] +.+.+.+.+.+.+.+.+.. X.+.+.+.+.+.+.+.+.+.z _ +.+.+.+.+.+.+.+.1 ] +.+.+.+.+.+.+.+.+.. X.+.+.+.+.+.+.+.+.+.z _ +.+.+.+.",
"+.+.+.+., ] +.+.+.+.+.+.+.+.+.. X.+.+.+.+.+.+.+.+.+.l _ +.+.+.+.+.+.+.+., ] +.+.+.+.+.+.+.+.+.. X.+.+.+.+.+.+.+.+.+.l _ +.+.+.+.",
"+.+.+.+.1 ] +.+.+.+.+.+.+.+.+.. X.+.+.+.+.+.+.+.+.+.z _ +.+.+.+.+.+.+.+.1 ] +.+.+.+.+.+.+.+.+.. X.+.+.+.+.+.+.+.+.+.z _ +.+.+.+.",
"+.+.+.+., ] +.+.+.+.+.+.+.+.+.. X.+.+.+.+.+.+.+.+.+.l _ +.+.+.+.+.+.+.+., ] +.+.+.+.+.+.+.+.+.. X.+.+.+.+.+.+.+.+.+.l _ +.+.+.+.",
"+.+.+.+.1 ] +.+.+.+.+.+.+.+.+.. X.+.+.+.+.+.+.+.+.+.z _ +.+.+.+.+.+.+.+.1 ] +.+.+.+.+.+.+.+.+.. X.+.+.+.+.+.+.+.+.+.z _ +.+.+.+.",
"+.+.+.+., ] +.+.+.+.+.+.+.+.+.. X.+.+.+.+.+.+.+.+.+.l _ +.+.+.+.+.+.+.+., ] +.+.+.+.+.+.+.+.+.. X.+.+.+.+.+.+.+.+.+.l _ +.+.+.+.",
"+.+.+.+.1 ] +.+.+.+.+.+.+.+.+.. X.+.+.+.+.+.+.+.+.+.z _ +.+.+.+.+.+.+.+.1 ] +.+.+.+.+.+.+.+.+.. X.+.+.+.+.+.+.+.+.+.z _ +.+.+.+.",
"+.+.+.+., ] +.+.+.+.+.+.+.+.+.. X.+.+.+.+.+.+.+.+.+.l _ +.+.+.+.+.+.+.+., ] +.+.+.+.+.+.+.+.+.. X.+.+.+.+.+.+.+.+.+.l _ +.+.+.+.",
"+.+.+.+.1 ] +.+.+.+.+.+.+.+.+.. X.+.+.+.+.+.+.+.+.+.z _ +.+.+.+.+.+.+.+.1 ] +.+.+.+.+.+.+.+.+.. X.+.+.+.+.+.+.+.+.+.z _ +.+.+.+.",
"+.+.+.+.2 ( { +.+.+.+.+.+.+.+.  [ +.+.+.+.+.+.+.+.+.g ~ +.+.+.+.+.+.+.+.5 ` +.+.+.+.+.+.+.+.+.* | +.+.+.+.+.+.+.+.+.x ^ +.+.+.+.",
"c d p t q 8 < ; & $ @ O o . .     X + # % = : > 4 6 9 w e r u i a s f j x b m M C F J I E ! Q W R T Y U P L K H G D S A Z V B N ",
"+.+.+.+., ' +.+.+.+.+.+.+.+.+.   .+.+.+.+.+.+.+.+.+.k / +.+.+.+.+.+.+.+., ' +.+.+.+.+.+.+.+.+.X ..+.+.+.+.+.+.+.+.+.l ) +.+.+.+.",
"+.+.+.+.1 ] +.+.+.+.+.+.+.+.+.. X.+.+.+.+.+.+.+.+.+.z _ +.+.+.+.+.+.+.+.1 ] +.+.+.+.+.+.+.+.+.. X.+.+.+.+.+.+.+.+.+.z _ +.+.+.+.",
"+.+.+.+., ] +.+.+.+.+.+.+.+.+.. X.+.+.+.+.+.+.+.+.+.l _ +.+.+.+.+.+.+.+., ] +.+.+.+.+.+.+.+.+.. X.+.+.+.+.+.+.+.+.+.l _ +.+.+.+.",
"+.+.+.+.1 ] +.+.+.+.+.+.+.+.+.. X.+.+.+.+.+.+.+.+.+.z _ +.+.+.+.+.+.+.+.1 ] +.+.+.+.+.+.+.+.+.. X.+.+.+.+.+.+.+.+.+.z _ +.+.+.+.",
"+.+.+.+., ] +.+.+.+.+.+.+.+.+.. X.+.+.+.+.+.+.+.+.+.l _ +.+.+.+.+.+.+.+., ] +.+.+.+.+.+.+.+.+.. X.+.+.+.+.+.+.+.+.+.l _ +.+.+.+.",
"+.+.+.+.1 ] +.+.+.+.+.+.+.+.+.. X.+.+.+.+.+.+.+.+.+.z _ +.+.+.+.+.+.+.+.1 ] +.+.+.+.+.+.+.+.+.. X.+.+.+.+.+.+.+.+.+.z _ +.+.+.+.",
"+.+.+.+., ] +.+.+.+.+.+.+.+.+.. X.+.+.+.+.+.+.+.+.+.l _ +.+.+.+.+.+.+.+., ] +.+.+.+.+.+.+.+.+.. X.+.+.+.+.+.+.+.+.+.l _ +.+.+.+.",
"+.+.+.+.1 ] +.+.+.+.+.+.+.+.+.. X.+.+.+.+.+.+.+.+.+.z _ +.+.+.+.+.+.+.+.1 ] +.+.+.+.+.+.+.+.+.. X.+.+.+.+.+.+.+.+.+.z _ +.+.+.+.",
"+.+.+.+., ] +.+.+.+.+.+.+.+.+.. X.+.+.+.+.+.+.+.+.+.l _ +.+.+.+.+.+.+.+., ] +.+.+.+.+.+.+.+.+.. X.+.+.+.+.+.+.+.+.+.l _ +.+.+.+.",
"+.+.+.+.1 ] +.+.+.+.+.+.+.+.+.. X.+.+.+.+.+.+.+.+.+.z _ +.+.+.+.+.+.+.+.1 ] +.+.+.+.+.+.+.+.+.. X.+.+.+.+.+.+.+.+.+.z _ +.+.+.+."
};
