/* XPM */
static char *ee02fdcede5f44a7d851c7d515b45dc27wrlcDxaMAgFwcs5[] = {
/* columns rows colors chars-per-pixel */
"64 64 256 2 ",
"   c black",
".  c #0000A8",
"X  c #00A800",
"o  c #00A8A8",
"O  c #A80000",
"+  c #A800A8",
"@  c #A85400",
"#  c gray66",
"$  c gray33",
"%  c #5454FC",
"&  c #54FC54",
"*  c #54FCFC",
"=  c #FC5454",
"-  c #FC54FC",
";  c #FCFC54",
":  c gray99",
">  c #ECECEC",
",  c gainsboro",
"<  c #D0D0D0",
"1  c #C0C0C0",
"2  c #B4B4B4",
"3  c gray66",
"4  c #989898",
"5  c gray55",
"6  c #7C7C7C",
"7  c gray44",
"8  c #646464",
"9  c gray33",
"0  c #484848",
"q  c gray22",
"w  c #2C2C2C",
"e  c #202020",
"r  c #FC0000",
"t  c #EC0000",
"y  c #E00000",
"u  c #D40000",
"i  c #C80000",
"p  c #BC0000",
"a  c #B00000",
"s  c #A40000",
"d  c #980000",
"f  c #880000",
"g  c #7C0000",
"h  c #700000",
"j  c #640000",
"k  c #580000",
"l  c #4C0000",
"z  c #400000",
"x  c #FCD8D8",
"c  c #FCB8B8",
"v  c #FC9C9C",
"b  c #FC7C7C",
"n  c #FC5C5C",
"m  c #FC4040",
"M  c #FC2020",
"N  c #FC0000",
"B  c #FCA85C",
"V  c #FC9840",
"C  c #FC8820",
"Z  c #FC7800",
"A  c #E46C00",
"S  c #CC6000",
"D  c #B45400",
"F  c #9C4C00",
"G  c #FCFCD8",
"H  c #FCFCB8",
"J  c #FCFC9C",
"K  c #FCFC7C",
"L  c #FCF85C",
"P  c #FCF440",
"I  c #FCF420",
"U  c #FCF400",
"Y  c #E4D800",
"T  c #CCC400",
"R  c #B4AC00",
"E  c #9C9C00",
"W  c #848400",
"Q  c #706C00",
"!  c #585400",
"~  c #404000",
"^  c #D0FC5C",
"/  c #C4FC40",
"(  c #B4FC20",
")  c #A0FC00",
"_  c #90E400",
"`  c #80CC00",
"'  c #74B400",
"]  c #609C00",
"[  c #D8FCD8",
"{  c #BCFCB8",
"}  c #9CFC9C",
"|  c #80FC7C",
" . c #60FC5C",
".. c #40FC40",
"X. c #20FC20",
"o. c #00FC00",
"O. c #00FC00",
"+. c #00EC00",
"@. c #00E000",
"#. c #00D400",
"$. c #04C800",
"%. c #04BC00",
"&. c #04B000",
"*. c #04A400",
"=. c #049800",
"-. c #048800",
";. c #047C00",
":. c #047000",
">. c #046400",
",. c #045800",
"<. c #044C00",
"1. c #044000",
"2. c #D8FCFC",
"3. c #B8FCFC",
"4. c #9CFCFC",
"5. c #7CFCF8",
"6. c #5CFCFC",
"7. c #40FCFC",
"8. c #20FCFC",
"9. c #00FCFC",
"0. c #00E4E4",
"q. c #00CCCC",
"w. c #00B4B4",
"e. c #009C9C",
"r. c #008484",
"t. c #007070",
"y. c #005858",
"u. c #004040",
"i. c #5CBCFC",
"p. c #40B0FC",
"a. c #20A8FC",
"s. c #009CFC",
"d. c #008CE4",
"f. c #007CCC",
"g. c #006CB4",
"h. c #005C9C",
"j. c #D8D8FC",
"k. c #B8BCFC",
"l. c #9C9CFC",
"z. c #7C80FC",
"x. c #5C60FC",
"c. c #4040FC",
"v. c #2024FC",
"b. c #0004FC",
"n. c #0000FC",
"m. c #0000EC",
"M. c #0000E0",
"N. c #0000D4",
"B. c #0000C8",
"V. c #0000BC",
"C. c #0000B0",
"Z. c #0000A4",
"A. c #000098",
"S. c #000088",
"D. c #00007C",
"F. c #000070",
"G. c #000064",
"H. c #000058",
"J. c #00004C",
"K. c #000040",
"L. c #282828",
"P. c #FCE034",
"I. c #FCD424",
"U. c #FCCC18",
"Y. c #FCC008",
"T. c #FCB400",
"R. c #B420FC",
"E. c #A800FC",
"W. c #9800E4",
"Q. c #8000CC",
"!. c #7400B4",
"~. c #60009C",
"^. c #500084",
"/. c #440070",
"(. c #340058",
"). c #280040",
"_. c #FCD8FC",
"`. c #FCB8FC",
"'. c #FC9CFC",
"]. c #FC7CFC",
"[. c #FC5CFC",
"{. c #FC40FC",
"}. c #FC20FC",
"|. c #FC00FC",
" X c #E000E4",
".X c #C800CC",
"XX c #B400B4",
"oX c #9C009C",
"OX c #840084",
"+X c #6C0070",
"@X c #580058",
"#X c #400040",
"$X c #FCE8DC",
"%X c #FCE0D0",
"&X c #FCD8C4",
"*X c #FCD4BC",
"=X c #FCCCB0",
"-X c #FCC4A4",
";X c #FCBC9C",
":X c #FCB890",
">X c #FCB080",
",X c #FCA470",
"<X c #FC9C60",
"1X c #F0945C",
"2X c #E88C58",
"3X c #DC8854",
"4X c #D08050",
"5X c #C87C4C",
"6X c #BC7848",
"7X c #B47044",
"8X c #A86840",
"9X c #A0643C",
"0X c #9C6038",
"qX c #905C34",
"wX c #885830",
"eX c #80502C",
"rX c #744C28",
"tX c #6C4824",
"yX c #5C4020",
"uX c #543C1C",
"iX c #483818",
"pX c #403018",
"aX c #382C14",
"sX c #28200C",
"dX c #600064",
"fX c #006464",
"gX c #006060",
"hX c #00001C",
"jX c #00002C",
"kX c #302410",
"lX c #480048",
"zX c #500050",
"xX c #000034",
"cX c gray11",
"vX c #4C4C4C",
"bX c gray36",
"nX c gray25",
"mX c gray19",
"MX c #343434",
"NX c #D8F4F4",
"BX c #B8E8E8",
"VX c #9CDCDC",
"CX c #74C8C8",
"ZX c #48C0C0",
"AX c #20B4B4",
"SX c #20B0B0",
"DX c #00A4A4",
"FX c #009898",
"GX c #008C8C",
"HX c #008484",
"JX c #007C7C",
"KX c #007878",
"LX c #007474",
"PX c #007070",
"IX c #006C6C",
"UX c #980088",
/* pixels */
"e L.e cXL.e L.e e L.e cXe L.e cXe e cXcXcXe e e e e cXe e cXe e e L.e L.e L.L.e e cXcXL.e L.e e e e cXcXe e e e cXe e e cXcXe cX",
"L.MXMXL.MXq MXL.q q w e w MXL.e e w L.cXL.MXMXw w w e e MXe e e L.MXMXq MXMXL.q L.e w q MXMXL.e e w e w MXMXL.w L.w MXL.e L.e e ",
"MXMXw e w w L.MXw w L.cXL.w w e w w e cXe L.L.L.L.e cXMXL.cXL.L.MXMXw w w L.MXw e e e w w w w L.w w cXe L.L.w e e e L.e cXe L.e ",
"MXw w L.w L.MXw w L.L.e L.w w e w L.L.e L.L.e e L.e e L.L.e L.e MXw w w L.MXw w L.e L.w w L.w L.MXL.e e L.L.L.L.e L.L.e e e L.e ",
"q w w L.w L.MXw w MXL.e L.w L.e MXw L.e L.L.e e w e e L.L.e L.L.q w w L.MXe w w L.e L.w w MXw e w L.e e e w L.L.e L.e e e e L.e ",
"MXw w L.L.MXw w w w L.e L.L.e cXq w L.e e L.L.w w e e L.L.e L.e L.L.L.MXw e w w L.e L.w w w w e MXL.e e e w L.L.e L.w e e e L.e ",
"MXw w e MXw w w w w w L.e e cXcXMXw L.e w L.L.L.L.L.e L.L.e L.e q MXMXw w L.w L.w L.w w w w w L.w L.e L.w L.L.L.L.L.L.L.e w L.e ",
"q w w w w w w w w w w e L.MXq e w L.L.e L.L.L.L.L.L.e L.e L.L.L.q w e w w L.w MXw L.w w w w w e w L.e L.L.L.L.e L.L.L.e L.L.L.e ",
"e w w L.w w w w w w e e q MXw e w L.L.e L.L.L.e e e e L.w e L.L.MXw e w w L.w w w L.w w L.w w L.MXL.e L.L.L.L.w e L.e w e L.L.e ",
"q w w L.w w w w w L.q q MXw w e MXL.L.L.L.L.L.e L.L.MXL.L.e L.e MXw e w w w w w w w w L.MXw w e MXe e L.L.L.L.L.w e e w e L.L.e ",
"MXw w e L.w w w L.q MXL.w w w e MXL.e L.L.L.L.w MXMXw L.L.e L.e q w L.w w w w w w w L.MXw w w e MXe e w L.L.L.L.L.e w L.e L.L.e ",
"q w L.L.w MXw w MXw w L.w L.w e w L.w e L.L.L.L.L.L.L.L.e e L.L.MXw L.L.L.MXw w w L.MXw w w w L.w L.w w L.L.L.L.L.e w L.e L.L.e ",
"MXw w MXMXw w w w w w L.w MXw e w L.L.w L.L.L.L.L.L.L.L.w L.L.L.MXw w MXMXw w w L.e q w w w w L.w L.L.L.L.L.L.L.e w L.L.e L.L.e ",
"L.w w w w w w w w w w w w w L.e e L.L.L.L.L.L.L.L.L.L.L.L.L.e e L.w w w w w w L.e e MXw w w L.e e L.L.L.L.L.L.e w L.L.L.e L.e e ",
"e L.L.L.L.L.e e e L.L.L.e L.e e e L.L.e e L.e MXq q q nXq q q nXq MXw q q nXL.e cXe e L.e L.e e e L.L.e e L.e e e L.L.L.e L.e e ",
"e e e e e e e w q MXMXq w q q q q MXq MXMXMXL.q MXMXw MXMXMXMXMXMXw e w MXMXMXe e L.MXq q MXq MXq w w MXq MXL.e e e e e e e e cX",
"cXcXcXcXcXcXL.q MXMXw w MXw w w w w w w w w w q MXw MXw w w w w w L.e L.w w w w e L.w w w w L.MXw L.e L.w w w L.e e cXcXcXcXcXcX",
"e e e e e e MXnXMXw w w w w w w w w w w w w w q MXw w w w w L.L.w w e L.w L.L.L.e L.w w w L.MXw w L.e L.L.w w L.e e e e e e L.e ",
"e e e e L.e MXnXMXw w w w w w w w L.e w w w w w MXw w w w w MXMXL.w e L.L.w w MXe L.w w L.MXe w w w L.w MXw w L.e cXe e e e e L.",
"w e L.L.L.L.MXq MXw w w L.L.w w w MXq w w w w q L.L.w w w w w w MXw e L.w MXMXL.e e w e MXw e w w w L.w w w w e e e e L.w L.L.L.",
"L.L.e w L.L.w q MXw L.L.q MXw w w w L.w w w w nXq MXL.MXw w w w w w L.w w w w L.e cXe MXL.w e w w L.e w w w w w e cXe L.L.L.L.L.",
"L.L.e w L.L.e L.MXL.q MXw w w w w w L.w w w L.nXMXw MXMXw w w w w w L.w w w w L.e e MXw L.w L.w L.w L.MXw w w L.e cXe L.L.L.L.L.",
"L.e w L.L.L.L.w w q w w w w w L.e L.L.w w L.e q MXw w w w L.w w w w L.L.MXw w L.e e w w L.w L.w w MXw w w w w L.e e e L.L.L.L.L.",
"e w L.L.L.w L.MXnXw w w w w w MXq MXw L.e e q q MXL.w w w MXL.w w w L.MXw w w L.e L.w L.w w L.w w w L.w w w w L.e e e e e w L.L.",
"w L.L.L.L.L.MXnXq w w L.w w w w w w L.e MXq w q MXMXw w w w MXL.w L.MXw w w w L.e L.w MXw w w w w w w w w w w L.e cXe w w L.L.L.",
"L.L.e L.L.L.q q MXw w MXL.w w L.w w e MXL.e w nXMXw w w w w w MXL.MXw w w w w L.e e L.w w w w w w w L.w w w L.e e cXe L.L.L.L.L.",
"L.L.w L.L.L.MXnXMXw w w MXw w MXw L.MXw L.e w q MXw w w L.w w w MXL.L.w w w w L.e w MXL.e L.L.w w w MXw w L.MXw L.e e L.L.L.L.L.",
"L.L.L.L.L.w MXq MXw w w w w w w w MXw w L.e w q MXL.L.L.w L.L.L.L.w w e L.L.L.L.e L.w MXMXMXMXw w w w w w MXw L.e e e L.L.L.e L.",
"MXMXL.L.MXL.MXq MXw w w w w w w w w w w w L.L.MXL.e e e e e e e e e e L.e e e e e L.w w w w w w w w w w w w L.e e L.w w e w q MX",
"q q w MXq MXnXq MXL.L.e e L.e e e L.L.e e e L.L.cXcXcXcXcXcXcXcXcXcXcXcXcXcXcXcXcXL.e L.e L.e e e L.e e L.e L.L.MXq q MXL.MXq w ",
"L.MXL.w MXw q MXq MXMXL.MXMXL.e L.MXMXq MXMXMXMXe e cXe e cXe cXe e cXcXcXcXe cXe e w w MXw e e L.MXMXq MXq q q MXMXq w L.w L.e ",
"MXMXe L.w e w w w w w MXw w w L.MXMXw w w L.w w L.e cXe e cXL.cXw e cXe cXe e cXe L.L.L.L.L.L.e MXMXw w w w w w w w w L.e L.w e ",
"MXw e L.w e w w w w w w w w w L.MXw w w w MXw w w e cXe MXe w cXMXL.cXe e e L.cXw e L.L.L.L.L.e MXw w w w L.MXw w w w L.e L.w L.",
"q w e L.w e e L.MXw w w w w w e w w w w w w w w w L.e L.w e w e w L.e e e e L.e e w e L.L.L.L.e q w w w e MXw w w L.e e e L.w L.",
"MXw L.w w e L.L.MXw w w L.w L.e e w w w w w w w w L.e L.w L.L.e w L.e e e e e cXw L.w e e L.L.e MXw w L.MXw w w w e w q L.w w e ",
"MXw L.L.L.e L.MXw w w w MXw w MXq e w w w w w w L.L.e L.w L.L.e e e e L.e L.w e L.L.L.w w e L.e MXw w MXw w w w w e w q L.w w e ",
"q w e MXMXL.MXw w w w w w w w L.MXMXL.w w w w L.MXMXe L.w L.L.e MXw e L.e L.L.e L.L.L.L.L.w e cXq MXw w w w w w w MXq MXL.w w L.",
"q w MXw w L.w w w w w w w w w L.MXw MXL.w w L.MXw w e L.w L.w L.w L.w L.e L.L.e L.L.L.L.L.L.e cXq nXMXw w w L.L.MXw w w w w L.L.",
"MXw w w w L.w w w w w L.w w w L.MXw w MXL.e MXw w w e w w L.w e MXL.L.L.e L.L.L.L.L.L.L.L.L.w e MXw w w w w MXMXw w w w w L.MXe ",
"q w w w w L.w L.w w L.MXw w w L.q w w w MXL.w w w w L.L.w w w L.MXL.L.e e L.L.L.e e L.L.L.L.L.e MXw w w w w w w w w w w L.MXw e ",
"MXw w w w L.w MXw w MXw w w w L.q w w w MXL.w w w w L.MXw w w e w L.L.w MXL.L.e L.L.w L.L.L.L.e q w w w w w w w w w w L.MXw w L.",
"MXw L.w w w w w w w w w w w w L.MXw w w w MXL.w w w L.w w w w L.w L.L.L.L.L.L.L.w w L.L.L.e L.e MXw w w w L.MXw w w w L.MXw w e ",
"L.w MXw w w w w w w w w w e L.e L.w w w w w MXL.w w L.w w w L.e e L.L.e L.L.L.L.L.L.e e e L.e e L.w w w L.e q MXw w L.MXw w L.L.",
"q q q q q q q q e L.e e e e e e e L.e L.e L.w cXe w L.L.L.L.e e e e e L.e e e cXe e cXcXe e e cXe L.L.e e L.e MXq nXnXq nXq nXq ",
"MXMXMXw MXMXMXw e L.q nXw e w nXq nXMXw q q w L.e e e e e e e e e e e e e e e L.MXw w e e e w MXMXMXL.q MXMXL.q MXMXMXMXMXMXMXMX",
"w w w MXw w w L.e L.MXMXq w q MXMXMXw e MXw q w L.e cXcXcXcXcXcXcXcXcXcXcXcXL.q MXMXw MXL.w w w w L.MXw w w w q MXw w w w w w w ",
"w w w w w w w L.e L.MXMXw q w MXMXMXw e w q MXw L.e e e e e e e e e e e e e MXq MXw w w MXL.w w L.MXw w w w w nXMXL.w w w w L.MX",
"w L.w w w w w L.e L.MXMXw q w MXMXMXw L.q MXMXw L.cXe e e e e e e e L.e e e MXnXMXw w w w MXe e MXw w w L.MXw q e e L.w w w MXw ",
"w MXL.w w w L.e e L.w MXw e q w MXMXw L.MXMXMXw L.cXe L.e L.L.L.e w L.L.e L.MXq MXw L.w w w MXe MXw w w MXMXw L.q MXMXL.w w w w ",
"w w MXe L.L.MXMXe L.q MXw e w q w w MXL.MXMXMXL.L.cXe L.L.L.L.e w L.L.L.e L.MXnXMXw MXw w w w MXL.L.w w w w w nXMXw w MXL.w w w ",
"w w w L.q MXw L.e L.MXMXw e w MXq q MXw MXMXMXq L.cXL.e L.L.e w e L.L.L.e L.MXq MXw w w w w w w MXMXL.w w w w MXMXw w MXL.w w L.",
"w w w L.MXw w L.e L.MXMXw L.w MXMXMXMXw MXMXMXw L.e e w e L.e w e L.L.L.e L.MXnXMXw w w w w w w w w MXL.w w w q MXw w w MXL.w MX",
"w w L.MXw w w L.e L.MXMXMXL.MXMXMXMXMXw MXMXMXw L.cXe L.w e w L.e L.L.L.L.L.e w L.w w w w w w w w w w MXL.w w nXw L.w w w MXw w ",
"w L.MXw w w w L.e L.MXMXMXL.MXw w w MXw MXMXMXw L.e e L.e w L.L.e L.L.L.L.L.L.MXMXL.w w w L.L.w w w w w MXw w nXq MXw w w w w w ",
"w MXw w w w w L.e L.MXMXMXw w MXMXMXq w MXw MXw L.cXe e w L.L.L.e e e L.L.L.w w w q w w w L.e MXw w L.w w w w q MXw w w w w w w ",
"w w w w w L.w L.e L.MXMXMXw MXq q q MXw MXq w w L.e e w L.L.L.L.e w w L.L.L.q nXq w w w w w MXMXw w MXw w w w q MXw w w L.w w w ",
"L.L.L.L.L.w L.L.e L.MXw MXw MXMXMXMXMXMXMXMXq MXL.e e L.L.L.L.L.L.L.L.L.L.w MXq MXw w w w w w w w w w w L.MXw q MXL.L.L.w L.L.L.",
"e e e e e e e e e L.MXq MXMXMXMXMXMXMXw w MXw L.e L.e MXe L.MXMXMXMXe L.MXMXMXq MXw w w w w w w w w w L.MXw L.MXL.e e e e e e e ",
"cXcXcXcXcXcXcXcXcXL.L.L.w w L.e L.w L.L.e L.w w q q w nXw w q q nXnXL.MXq nXq q MXL.L.e e L.e e e e L.e MXL.e L.cXcXcXcXcXcXcXcX",
"e L.cXcXcXe cXe e L.MXMXMXMXL.e L.MXMXq L.MXMXMXMXMXL.w L.L.L.e L.MXe L.w w MXMXq MXq MXMXMXL.e L.MXMXq MXq MXMXcXcXcXe cXcXcXcX",
"MXL.e cXe L.cXe L.w w w w w w L.MXMXw w MXL.L.w w w e MXe L.w e L.MXe L.MXMXw w w w w w w w w L.MXMXw w w w w w e cXe e cXe cXe ",
"q w e e e w cXL.w w w w w w w e MXw w w w MXMXL.L.L.L.w e L.w L.MXw e L.w w w w w w L.L.w w w e MXw w w w w w w e cXe MXcXe e e ",
"MXw L.e w L.e w w w w w L.L.MXL.q w w w w w w MXMXMXe w e L.w L.MXw e L.w w w w w L.w w MXw w L.q w L.L.w w w w L.e L.w e L.e e ",
"q w L.e L.MXe w w w w w MXMXw e MXw w w w w w w w w L.w e w e e L.e L.w w w w w w w MXMXw w w e MXw MXMXw w w w L.e L.w e L.e e "
};
